<svg id="Layer_1" data-name="Layer 1" xmlns="http://www.w3.org/2000/svg" viewBox="0 0 284.47 65"><defs><style>.cls-1{fill:#acdee7;}.cls-2{fill:#ff968a;}</style></defs><path d="M4.44,20.76h10.3L21.8,44l7.34-23.19h8.72L45.2,44l7.06-23.19H62.55L49.88,58H40.45l-6.92-23.4-7,23.4H17.12Z"/><path class="cls-1" d="M64.49,39.34c0-10.58,9.29-19.44,20.38-19.44s20.23,8.86,20.23,19.44S95.89,58.85,84.87,58.85,64.49,49.93,64.49,39.34Z"/><path d="M112.23,7.66h10.51V58H112.23Z"/><path d="M144.34,20.76h8.07v8.5h-8.07V58H134.26V29.26h-5.11v-8.5h5.11V17.52c0-6.69,4.61-11.37,11.16-11.37A13.52,13.52,0,0,1,154,9.39l-2.52,6.4a5.41,5.41,0,0,0-3.6-1.22c-2,0-3.53,1.73-3.53,4.18Z"/><path d="M156.36,53.24,160.9,46a21.22,21.22,0,0,0,12.46,4.17c2.81,0,4.82-1.15,4.82-2.81,0-2.3-2.73-3-6.55-4C164,41.43,158.09,39.34,158,32c-.07-7.06,5.76-12.1,14.54-12.1a27,27,0,0,1,14.69,4.61L183,32a21.11,21.11,0,0,0-10.45-3.32c-2.59,0-4.39.94-4.39,2.24,0,2,1.51,2.59,6.55,4,6.41,1.65,13.54,3.81,13.54,11.95,0,7.34-6,12-15.12,12A27.53,27.53,0,0,1,156.36,53.24Z"/><path class="cls-2" d="M193.23,39.34c0-10.58,9.29-19.44,20.38-19.44s20.23,8.86,20.23,19.44-9.22,19.51-20.23,19.51S193.23,49.93,193.23,39.34Z"/><path d="M276.32,34.3V58H266.16V36.53c0-4.61-2.88-7.77-7.05-7.77-4.39,0-7.78,3.16-7.78,7.2l-.07-.22V58H240.75V20.76h10.51v4.68a13.27,13.27,0,0,1,11.23-5.54C270.56,19.9,276.32,25.88,276.32,34.3Z"/></svg>